D:\school\WTK\thesis\model\3dpredictsim\Results\Batchsim_tmt_linear_v2\Pog_s1_tmt_aCst_d00_k2000_ig24_pas_GRF.mot
nRows=25
nColumns=19

name D:\school\WTK\thesis\model\3dpredictsim\Results\Batchsim_tmt_linear_v2\Pog_s1_tmt_aCst_d00_k2000_ig24_pas_GRF.mot
datacolumns 19
datarows 25
range 0.5367626305 0.7944086931
endheader
time 	ground_force_vx	ground_force_vy	ground_force_vz	ground_force_px	ground_force_py	ground_force_pz	1_ground_force_vx	1_ground_force_vy	1_ground_force_vz	1_ground_force_px	1_ground_force_py	1_ground_force_pz	ground_torque_x	ground_torque_y	ground_torque_z	1_ground_torque_x	1_ground_torque_y	1_ground_torque_z
        0.5367626305	      125.2733631310	      523.5196976659	       -4.6875715679	        0.3247232069	        0.0000000000	        0.0493745686	      -61.1023794693	       42.3080105905	      -10.1009339238	        0.8315143253	        0.0000000000	       -0.0472452114	        0.0000000000	        0.0000000000	        0.0000000000	        0.0000000000	        0.0000000000	        0.0000000000	
        0.5474978831	       99.0772248189	      435.7113403106	        0.3776958533	        0.3348699322	        0.0000000000	        0.0480627774	     -113.0549920289	       96.4276297675	      -25.0844898534	        0.8421676441	        0.0000000000	       -0.0454318829	        0.0000000000	        0.0000000000	        0.0000000000	        0.0000000000	        0.0000000000	        0.0000000000	
        0.5582331357	       64.5624574791	      333.5660620489	        6.1558693524	        0.3512272023	        0.0000000000	        0.0455872958	     -115.2776560095	      208.6915183202	      -47.5606873629	        0.8491694242	        0.0000000000	       -0.0444885089	        0.0000000000	        0.0000000000	        0.0000000000	        0.0000000000	        0.0000000000	        0.0000000000	
        0.5689683883	       30.0888892225	      235.4257567478	        5.8417416255	        0.3764688403	        0.0000000000	        0.0412278710	      -61.1737828059	      381.2600928813	       -7.2573497096	        0.8541821032	        0.0000000000	       -0.0437658298	        0.0000000000	        0.0000000000	        0.0000000000	        0.0000000000	        0.0000000000	        0.0000000000	
        0.5797036409	        6.7651109775	      160.7995222755	        8.7877304697	        0.4070612001	        0.0000000000	        0.0340326602	      -73.0001797834	      593.5542714896	        7.0783693433	        0.8627421940	        0.0000000000	       -0.0459844054	        0.0000000000	        0.0000000000	        0.0000000000	        0.0000000000	        0.0000000000	        0.0000000000	
        0.5904388935	       -1.2971478198	      133.9812714542	       12.3184269149	        0.4109884955	        0.0000000000	        0.0330000755	     -111.4503868776	      798.5514818001	       14.6944302364	        0.8712363549	        0.0000000000	       -0.0485508869	        0.0000000000	        0.0000000000	        0.0000000000	        0.0000000000	        0.0000000000	        0.0000000000	
        0.6011741461	       -2.2602892764	      100.9922041128	       14.2523819323	        0.4115683733	        0.0000000000	        0.0332290679	     -127.2434539293	      900.6557481933	       18.1036310721	        0.8769866245	        0.0000000000	       -0.0501376354	        0.0000000000	        0.0000000000	        0.0000000000	        0.0000000000	        0.0000000000	        0.0000000000	
        0.6119093987	       -5.3369060319	       64.6386025849	       13.3433408365	        0.4120140736	        0.0000000000	        0.0333618151	     -123.8495726882	      905.7529936950	       18.4519231666	        0.8811910004	        0.0000000000	       -0.0511734052	        0.0000000000	        0.0000000000	        0.0000000000	        0.0000000000	        0.0000000000	        0.0000000000	
        0.6226446513	       -9.3512122800	       26.6855508494	        6.6279771882	        0.4116288892	        0.0000000000	        0.0330081488	     -113.5961717847	      868.7420731078	       17.8659826232	        0.8848247823	        0.0000000000	       -0.0519245014	        0.0000000000	        0.0000000000	        0.0000000000	        0.0000000000	        0.0000000000	        0.0000000000	
        0.6333799039	        0.1738380090	       -0.1727744085	       -0.0153352438	        0.0000000000	        0.0000000000	        0.0000000000	     -101.2135014448	      830.1578451767	       16.1565998349	        0.8886613059	        0.0000000000	       -0.0525622175	        0.0000000000	        0.0000000000	        0.0000000000	        0.0000000000	        0.0000000000	        0.0000000000	
        0.6441151566	        0.0007200410	       -0.0005890390	        0.0000010498	        0.0000000000	        0.0000000000	        0.0000000000	      -92.3895813514	      805.4075315026	       17.2231720019	        0.8937968413	        0.0000000000	       -0.0532249542	        0.0000000000	        0.0000000000	        0.0000000000	        0.0000000000	        0.0000000000	        0.0000000000	
        0.6548504092	        0.0002809857	       -0.0001998339	        0.0000060936	        0.0000000000	        0.0000000000	        0.0000000000	      -85.2058407397	      782.6207621458	       17.1726943972	        0.8999631453	        0.0000000000	       -0.0534406635	        0.0000000000	        0.0000000000	        0.0000000000	        0.0000000000	        0.0000000000	        0.0000000000	
        0.6655856618	        0.0018705359	       -0.0011927790	        0.0000567413	        0.0000000000	        0.0000000000	        0.0000000000	      -76.8364155252	      747.5540117510	       16.9523965392	        0.9059136510	        0.0000000000	       -0.0535492119	        0.0000000000	        0.0000000000	        0.0000000000	        0.0000000000	        0.0000000000	        0.0000000000	
        0.6763209144	        0.0053688241	       -0.0031388915	        0.0001861574	        0.0000000000	        0.0000000000	        0.0000000000	      -68.7996219335	      711.2849084617	       16.6403830919	        0.9118012706	        0.0000000000	       -0.0535354134	        0.0000000000	        0.0000000000	        0.0000000000	        0.0000000000	        0.0000000000	        0.0000000000	
        0.6870561670	       -0.0630198986	        0.0343062858	       -0.0023571893	        0.0000000000	        0.0000000000	        0.0000000000	      -61.1542064574	      680.3458670414	       16.5555958839	        0.9175608728	        0.0000000000	       -0.0534877250	        0.0000000000	        0.0000000000	        0.0000000000	        0.0000000000	        0.0000000000	        0.0000000000	
        0.6977914196	       -0.0446275075	        0.0228686098	       -0.0017694230	        0.0000000000	        0.0000000000	        0.0000000000	      -53.9295112629	      655.5841310339	       16.9462204817	        0.9230232848	        0.0000000000	       -0.0534349023	        0.0000000000	        0.0000000000	        0.0000000000	        0.0000000000	        0.0000000000	        0.0000000000	
        0.7085266722	       -0.0317540916	        0.0154505776	       -0.0013128032	        0.0000000000	        0.0000000000	        0.0000000000	      -47.4111863935	      636.5372065511	       17.3872287196	        0.9281854077	        0.0000000000	       -0.0533687111	        0.0000000000	        0.0000000000	        0.0000000000	        0.0000000000	        0.0000000000	        0.0000000000	
        0.7192619248	       -0.0280200418	        0.0130293850	       -0.0011946650	        0.0000000000	        0.0000000000	        0.0000000000	      -41.3704781053	      621.7999332976	       17.6564493993	        0.9330375127	        0.0000000000	       -0.0532865862	        0.0000000000	        0.0000000000	        0.0000000000	        0.0000000000	        0.0000000000	        0.0000000000	
        0.7299971774	       -0.0316218779	        0.0141271612	       -0.0013778644	        0.0000000000	        0.0000000000	        0.0000000000	      -37.0358609237	      611.4830192318	       18.2482902633	        0.9375809025	        0.0000000000	       -0.0531727997	        0.0000000000	        0.0000000000	        0.0000000000	        0.0000000000	        0.0000000000	        0.0000000000	
        0.7407324300	       -0.0441696166	        0.0190551146	       -0.0019675085	        0.0000000000	        0.0000000000	        0.0000000000	      -33.3893942253	      604.6367419624	       19.0894984407	        0.9418183182	        0.0000000000	       -0.0530280228	        0.0000000000	        0.0000000000	        0.0000000000	        0.0000000000	        0.0000000000	        0.0000000000	
        0.7514676826	       -0.0720407930	        0.0301498194	       -0.0032804627	        0.0000000000	        0.0000000000	        0.0000000000	      -29.9523749110	      599.0078026670	       19.9339812242	        0.9457523211	        0.0000000000	       -0.0528650095	        0.0000000000	        0.0000000000	        0.0000000000	        0.0000000000	        0.0000000000	        0.0000000000	
        0.7622029353	       -0.1284922840	        0.0523785494	       -0.0059627677	        0.0000000000	        0.0000000000	        0.0000000000	      -26.6291212696	      593.5934183993	       20.4450655001	        0.9493743242	        0.0000000000	       -0.0527019740	        0.0000000000	        0.0000000000	        0.0000000000	        0.0000000000	        0.0000000000	        0.0000000000	
        0.7729381879	       -0.2350539710	        0.0936768173	       -0.0110597102	        0.0000000000	        0.0000000000	        0.0000000000	      -23.3657135758	      587.6898542023	       20.7341599496	        0.9526836105	        0.0000000000	       -0.0525441814	        0.0000000000	        0.0000000000	        0.0000000000	        0.0000000000	        0.0000000000	        0.0000000000	
        0.7836734405	       -0.4173676031	        0.1632006786	       -0.0198482446	        0.0000000000	        0.0000000000	        0.0000000000	      -20.0219923505	      581.0154899595	       20.9347422965	        0.9557038881	        0.0000000000	       -0.0523920655	        0.0000000000	        0.0000000000	        0.0000000000	        0.0000000000	        0.0000000000	        0.0000000000	
        0.7944086931	       -0.6970733308	        0.2681402507	       -0.0334295073	        0.0000000000	        0.0000000000	        0.0000000000	      -16.4581192571	      573.3456307626	       20.8752942001	        0.9584607214	        0.0000000000	       -0.0522493897	        0.0000000000	        0.0000000000	        0.0000000000	        0.0000000000	        0.0000000000	        0.0000000000	
